<?xml version="1.0" encoding="utf-8"?>
<!-- Generator: Adobe Illustrator 19.1.0, SVG Export Plug-In . SVG Version: 6.00 Build 0)  -->
<svg version="1.1" id="Capa_1" xmlns="http://www.w3.org/2000/svg" xmlns:xlink="http://www.w3.org/1999/xlink" x="0px" y="0px"
	 viewBox="-209 270.9 80.1 80.1" style="enable-background:new -209 270.9 80.1 80.1;" xml:space="preserve">
<style type="text/css">
	.st0{fill:#32384D;}
</style>
<g>
	<path class="st0" d="M-160.6,288.8c3.7,2.3,6.3,6.3,6.8,10.8c1.5,0.7,3.2,1.1,5,1.1c6.5,0,11.8-5.3,11.8-11.8
		c0-6.5-5.3-11.8-11.8-11.8C-155.3,277.2-160.5,282.4-160.6,288.8z M-168.3,312.9c6.5,0,11.8-5.3,11.8-11.8s-5.3-11.8-11.8-11.8
		c-6.5,0-11.8,5.3-11.8,11.8S-174.8,312.9-168.3,312.9z M-163.4,313.7h-10c-8.3,0-15,6.8-15,15v12.2l0,0.2l0.8,0.3
		c7.9,2.5,14.8,3.3,20.5,3.3c11.1,0,17.5-3.2,17.9-3.4l0.8-0.4h0.1v-12.2C-148.3,320.4-155.1,313.7-163.4,313.7z M-143.9,301.5h-9.9
		c-0.1,4-1.8,7.5-4.5,10.1c7.4,2.2,12.8,9,12.8,17.1v3.8c9.8-0.4,15.4-3.1,15.8-3.3l0.8-0.4h0.1v-12.2
		C-128.9,308.3-135.6,301.5-143.9,301.5z M-189,300.7c2.3,0,4.4-0.7,6.2-1.8c0.6-3.8,2.6-7,5.5-9.3c0-0.2,0-0.4,0-0.7
		c0-6.5-5.3-11.8-11.8-11.8c-6.5,0-11.8,5.3-11.8,11.8C-200.7,295.5-195.5,300.7-189,300.7z M-178.4,311.6c-2.7-2.6-4.3-6.1-4.5-10
		c-0.4,0-0.7-0.1-1.1-0.1h-10c-8.3,0-15,6.8-15,15v12.2l0,0.2l0.8,0.3c6.4,2,12,2.9,16.9,3.2v-3.7
		C-191.2,320.6-185.8,313.8-178.4,311.6z"/>
</g>
</svg>
